{
  "id": "fa91a6e1",
  "service": "melody_bass",
  "source_path": "/Users/danielconnolly/Projects/Performia/backend/uploads/fa91a6e1.mp3",
  "performance": {
    "melody": [
      {
        "time": 12.608,
        "midi": 59,
        "velocity": 105,
        "duration": 0.16,
        "confidence": 0.864
      },
      {
        "time": 12.864,
        "midi": 56,
        "velocity": 105,
        "duration": 0.32,
        "confidence": 0.867
      },
      {
        "time": 13.76,
        "midi": 52,
        "velocity": 104,
        "duration": 0.448,
        "confidence": 0.828
      },
      {
        "time": 15.872,
        "midi": 54,
        "velocity": 103,
        "duration": 0.32,
        "confidence": 0.792
      },
      {
        "time": 19.968,
        "midi": 58,
        "velocity": 103,
        "duration": 0.64,
        "confidence": 0.768
      },
      {
        "time": 20.8,
        "midi": 54,
        "velocity": 106,
        "duration": 0.288,
        "confidence": 0.87
      },
      {
        "time": 21.216,
        "midi": 53,
        "velocity": 104,
        "duration": 0.832,
        "confidence": 0.804
      },
      {
        "time": 26.688,
        "midi": 57,
        "velocity": 106,
        "duration": 0.736,
        "confidence": 0.871
      },
      {
        "time": 29.984,
        "midi": 52,
        "velocity": 106,
        "duration": 0.128,
        "confidence": 0.869
      },
      {
        "time": 30.848,
        "midi": 52,
        "velocity": 106,
        "duration": 0.512,
        "confidence": 0.895
      },
      {
        "time": 34.304,
        "midi": 58,
        "velocity": 102,
        "duration": 0.64,
        "confidence": 0.734
      },
      {
        "time": 35.552,
        "midi": 53,
        "velocity": 106,
        "duration": 0.864,
        "confidence": 0.888
      },
      {
        "time": 38.624,
        "midi": 57,
        "velocity": 101,
        "duration": 0.192,
        "confidence": 0.711
      },
      {
        "time": 48.64,
        "midi": 57,
        "velocity": 101,
        "duration": 0.128,
        "confidence": 0.704
      },
      {
        "time": 60.096,
        "midi": 57,
        "velocity": 105,
        "duration": 0.8,
        "confidence": 0.839
      },
      {
        "time": 61.344,
        "midi": 52,
        "velocity": 105,
        "duration": 0.32,
        "confidence": 0.839
      },
      {
        "time": 62.432,
        "midi": 49,
        "velocity": 101,
        "duration": 0.448,
        "confidence": 0.72
      },
      {
        "time": 64.032,
        "midi": 53,
        "velocity": 102,
        "duration": 1.056,
        "confidence": 0.766
      },
      {
        "time": 65.12,
        "midi": 49,
        "velocity": 101,
        "duration": 0.224,
        "confidence": 0.707
      },
      {
        "time": 67.744,
        "midi": 59,
        "velocity": 101,
        "duration": 0.192,
        "confidence": 0.722
      },
      {
        "time": 68.64,
        "midi": 54,
        "velocity": 99,
        "duration": 0.128,
        "confidence": 0.651
      },
      {
        "time": 68.864,
        "midi": 53,
        "velocity": 104,
        "duration": 1.28,
        "confidence": 0.833
      },
      {
        "time": 74.56,
        "midi": 57,
        "velocity": 104,
        "duration": 0.288,
        "confidence": 0.809
      },
      {
        "time": 75.968,
        "midi": 52,
        "velocity": 103,
        "duration": 0.768,
        "confidence": 0.771
      },
      {
        "time": 77.248,
        "midi": 52,
        "velocity": 100,
        "duration": 0.192,
        "confidence": 0.699
      },
      {
        "time": 78.112,
        "midi": 55,
        "velocity": 102,
        "duration": 0.512,
        "confidence": 0.755
      },
      {
        "time": 78.848,
        "midi": 54,
        "velocity": 102,
        "duration": 0.288,
        "confidence": 0.756
      },
      {
        "time": 79.456,
        "midi": 51,
        "velocity": 106,
        "duration": 0.192,
        "confidence": 0.885
      },
      {
        "time": 81.856,
        "midi": 58,
        "velocity": 104,
        "duration": 0.48,
        "confidence": 0.804
      },
      {
        "time": 82.688,
        "midi": 54,
        "velocity": 103,
        "duration": 1.088,
        "confidence": 0.785
      },
      {
        "time": 103.296,
        "midi": 57,
        "velocity": 102,
        "duration": 0.256,
        "confidence": 0.739
      },
      {
        "time": 108.288,
        "midi": 56,
        "velocity": 105,
        "duration": 3.168,
        "confidence": 0.844
      },
      {
        "time": 111.744,
        "midi": 51,
        "velocity": 101,
        "duration": 0.384,
        "confidence": 0.731
      },
      {
        "time": 116.896,
        "midi": 59,
        "velocity": 103,
        "duration": 0.352,
        "confidence": 0.783
      },
      {
        "time": 119.744,
        "midi": 57,
        "velocity": 102,
        "duration": 0.128,
        "confidence": 0.74
      },
      {
        "time": 120.544,
        "midi": 61,
        "velocity": 99,
        "duration": 0.192,
        "confidence": 0.64
      },
      {
        "time": 122.176,
        "midi": 52,
        "velocity": 103,
        "duration": 0.16,
        "confidence": 0.783
      },
      {
        "time": 123.456,
        "midi": 55,
        "velocity": 102,
        "duration": 0.416,
        "confidence": 0.752
      },
      {
        "time": 124.192,
        "midi": 59,
        "velocity": 105,
        "duration": 4.448,
        "confidence": 0.837
      },
      {
        "time": 134.784,
        "midi": 61,
        "velocity": 99,
        "duration": 0.128,
        "confidence": 0.652
      },
      {
        "time": 135.136,
        "midi": 59,
        "velocity": 104,
        "duration": 0.256,
        "confidence": 0.816
      },
      {
        "time": 137.76,
        "midi": 56,
        "velocity": 98,
        "duration": 0.16,
        "confidence": 0.631
      },
      {
        "time": 138.368,
        "midi": 59,
        "velocity": 104,
        "duration": 4.704,
        "confidence": 0.817
      },
      {
        "time": 160.768,
        "midi": 59,
        "velocity": 99,
        "duration": 0.192,
        "confidence": 0.663
      },
      {
        "time": 162.784,
        "midi": 61,
        "velocity": 104,
        "duration": 0.16,
        "confidence": 0.823
      },
      {
        "time": 166.976,
        "midi": 59,
        "velocity": 105,
        "duration": 2.912,
        "confidence": 0.852
      },
      {
        "time": 175.2,
        "midi": 57,
        "velocity": 104,
        "duration": 0.8,
        "confidence": 0.816
      },
      {
        "time": 177.504,
        "midi": 59,
        "velocity": 102,
        "duration": 0.32,
        "confidence": 0.74
      },
      {
        "time": 181.12,
        "midi": 59,
        "velocity": 103,
        "duration": 0.384,
        "confidence": 0.787
      },
      {
        "time": 181.728,
        "midi": 59,
        "velocity": 104,
        "duration": 3.584,
        "confidence": 0.811
      },
      {
        "time": 207.104,
        "midi": 59,
        "velocity": 100,
        "duration": 0.16,
        "confidence": 0.686
      },
      {
        "time": 209.056,
        "midi": 57,
        "velocity": 97,
        "duration": 0.16,
        "confidence": 0.575
      },
      {
        "time": 210.208,
        "midi": 57,
        "velocity": 103,
        "duration": 0.192,
        "confidence": 0.79
      },
      {
        "time": 211.712,
        "midi": 61,
        "velocity": 98,
        "duration": 0.16,
        "confidence": 0.631
      }
    ],
    "bass": [
      {
        "time": 46.496,
        "midi": 42,
        "velocity": 103,
        "duration": 1.6,
        "confidence": 0.785
      },
      {
        "time": 58.112,
        "midi": 35,
        "velocity": 99,
        "duration": 0.416,
        "confidence": 0.646
      },
      {
        "time": 60.48,
        "midi": 33,
        "velocity": 98,
        "duration": 1.248,
        "confidence": 0.615
      },
      {
        "time": 62.336,
        "midi": 30,
        "velocity": 94,
        "duration": 1.28,
        "confidence": 0.497
      },
      {
        "time": 64.032,
        "midi": 35,
        "velocity": 98,
        "duration": 1.184,
        "confidence": 0.617
      },
      {
        "time": 66.176,
        "midi": 28,
        "velocity": 93,
        "duration": 0.48,
        "confidence": 0.454
      },
      {
        "time": 67.04,
        "midi": 40,
        "velocity": 102,
        "duration": 0.32,
        "confidence": 0.75
      },
      {
        "time": 67.552,
        "midi": 33,
        "velocity": 97,
        "duration": 1.184,
        "confidence": 0.581
      },
      {
        "time": 69.312,
        "midi": 35,
        "velocity": 100,
        "duration": 0.512,
        "confidence": 0.695
      },
      {
        "time": 70.592,
        "midi": 35,
        "velocity": 100,
        "duration": 1.664,
        "confidence": 0.689
      },
      {
        "time": 72.832,
        "midi": 28,
        "velocity": 93,
        "duration": 1.056,
        "confidence": 0.464
      },
      {
        "time": 73.92,
        "midi": 40,
        "velocity": 98,
        "duration": 0.512,
        "confidence": 0.628
      },
      {
        "time": 74.656,
        "midi": 33,
        "velocity": 97,
        "duration": 1.184,
        "confidence": 0.6
      },
      {
        "time": 76.416,
        "midi": 30,
        "velocity": 96,
        "duration": 1.408,
        "confidence": 0.537
      },
      {
        "time": 78.56,
        "midi": 35,
        "velocity": 100,
        "duration": 1.248,
        "confidence": 0.676
      },
      {
        "time": 80.288,
        "midi": 28,
        "velocity": 93,
        "duration": 0.448,
        "confidence": 0.456
      },
      {
        "time": 80.768,
        "midi": 40,
        "velocity": 97,
        "duration": 0.736,
        "confidence": 0.583
      },
      {
        "time": 81.728,
        "midi": 33,
        "velocity": 98,
        "duration": 1.216,
        "confidence": 0.614
      },
      {
        "time": 83.488,
        "midi": 35,
        "velocity": 100,
        "duration": 0.512,
        "confidence": 0.682
      },
      {
        "time": 84.736,
        "midi": 35,
        "velocity": 100,
        "duration": 1.248,
        "confidence": 0.686
      },
      {
        "time": 86.304,
        "midi": 38,
        "velocity": 102,
        "duration": 0.576,
        "confidence": 0.735
      },
      {
        "time": 87.008,
        "midi": 28,
        "velocity": 93,
        "duration": 0.672,
        "confidence": 0.457
      },
      {
        "time": 87.712,
        "midi": 40,
        "velocity": 96,
        "duration": 0.832,
        "confidence": 0.541
      },
      {
        "time": 88.672,
        "midi": 38,
        "velocity": 102,
        "duration": 1.28,
        "confidence": 0.752
      },
      {
        "time": 90.72,
        "midi": 33,
        "velocity": 98,
        "duration": 0.992,
        "confidence": 0.629
      },
      {
        "time": 92.704,
        "midi": 30,
        "velocity": 95,
        "duration": 0.8,
        "confidence": 0.528
      },
      {
        "time": 94.048,
        "midi": 28,
        "velocity": 94,
        "duration": 0.768,
        "confidence": 0.468
      },
      {
        "time": 94.848,
        "midi": 40,
        "velocity": 94,
        "duration": 0.608,
        "confidence": 0.489
      },
      {
        "time": 95.808,
        "midi": 38,
        "velocity": 100,
        "duration": 1.472,
        "confidence": 0.687
      },
      {
        "time": 97.632,
        "midi": 33,
        "velocity": 96,
        "duration": 1.12,
        "confidence": 0.552
      },
      {
        "time": 99.776,
        "midi": 30,
        "velocity": 96,
        "duration": 0.8,
        "confidence": 0.546
      },
      {
        "time": 101.12,
        "midi": 28,
        "velocity": 93,
        "duration": 1.376,
        "confidence": 0.457
      },
      {
        "time": 102.848,
        "midi": 38,
        "velocity": 102,
        "duration": 1.504,
        "confidence": 0.734
      },
      {
        "time": 104.768,
        "midi": 33,
        "velocity": 97,
        "duration": 1.056,
        "confidence": 0.588
      },
      {
        "time": 106.848,
        "midi": 30,
        "velocity": 96,
        "duration": 0.736,
        "confidence": 0.535
      },
      {
        "time": 108.192,
        "midi": 28,
        "velocity": 93,
        "duration": 1.088,
        "confidence": 0.441
      },
      {
        "time": 109.44,
        "midi": 38,
        "velocity": 101,
        "duration": 1.664,
        "confidence": 0.702
      },
      {
        "time": 111.392,
        "midi": 33,
        "velocity": 97,
        "duration": 1.472,
        "confidence": 0.592
      },
      {
        "time": 113.856,
        "midi": 30,
        "velocity": 95,
        "duration": 0.704,
        "confidence": 0.514
      },
      {
        "time": 115.136,
        "midi": 33,
        "velocity": 98,
        "duration": 1.472,
        "confidence": 0.617
      },
      {
        "time": 116.96,
        "midi": 32,
        "velocity": 97,
        "duration": 1.216,
        "confidence": 0.575
      },
      {
        "time": 118.688,
        "midi": 38,
        "velocity": 102,
        "duration": 1.664,
        "confidence": 0.737
      },
      {
        "time": 121.376,
        "midi": 30,
        "velocity": 94,
        "duration": 0.288,
        "confidence": 0.499
      },
      {
        "time": 122.24,
        "midi": 32,
        "velocity": 97,
        "duration": 3.04,
        "confidence": 0.586
      },
      {
        "time": 125.792,
        "midi": 38,
        "velocity": 101,
        "duration": 1.632,
        "confidence": 0.73
      },
      {
        "time": 128.16,
        "midi": 30,
        "velocity": 95,
        "duration": 0.576,
        "confidence": 0.513
      },
      {
        "time": 129.088,
        "midi": 32,
        "velocity": 97,
        "duration": 1.664,
        "confidence": 0.589
      },
      {
        "time": 131.136,
        "midi": 32,
        "velocity": 97,
        "duration": 1.568,
        "confidence": 0.585
      },
      {
        "time": 132.864,
        "midi": 38,
        "velocity": 101,
        "duration": 1.6,
        "confidence": 0.704
      },
      {
        "time": 134.592,
        "midi": 30,
        "velocity": 95,
        "duration": 1.216,
        "confidence": 0.52
      },
      {
        "time": 136.416,
        "midi": 33,
        "velocity": 98,
        "duration": 1.408,
        "confidence": 0.629
      },
      {
        "time": 138.176,
        "midi": 32,
        "velocity": 98,
        "duration": 1.28,
        "confidence": 0.613
      },
      {
        "time": 139.904,
        "midi": 31,
        "velocity": 96,
        "duration": 1.44,
        "confidence": 0.54
      },
      {
        "time": 141.504,
        "midi": 35,
        "velocity": 99,
        "duration": 0.384,
        "confidence": 0.642
      },
      {
        "time": 142.144,
        "midi": 35,
        "velocity": 100,
        "duration": 1.184,
        "confidence": 0.686
      },
      {
        "time": 143.52,
        "midi": 28,
        "velocity": 93,
        "duration": 1.024,
        "confidence": 0.454
      },
      {
        "time": 145.216,
        "midi": 35,
        "velocity": 99,
        "duration": 0.8,
        "confidence": 0.645
      },
      {
        "time": 146.496,
        "midi": 35,
        "velocity": 99,
        "duration": 0.16,
        "confidence": 0.646
      },
      {
        "time": 147.104,
        "midi": 33,
        "velocity": 98,
        "duration": 1.088,
        "confidence": 0.621
      },
      {
        "time": 149.184,
        "midi": 30,
        "velocity": 96,
        "duration": 0.768,
        "confidence": 0.544
      },
      {
        "time": 150.528,
        "midi": 28,
        "velocity": 94,
        "duration": 1.184,
        "confidence": 0.468
      },
      {
        "time": 152.224,
        "midi": 35,
        "velocity": 99,
        "duration": 0.8,
        "confidence": 0.653
      },
      {
        "time": 153.536,
        "midi": 35,
        "velocity": 99,
        "duration": 0.16,
        "confidence": 0.659
      },
      {
        "time": 154.048,
        "midi": 33,
        "velocity": 99,
        "duration": 1.152,
        "confidence": 0.646
      },
      {
        "time": 156.224,
        "midi": 30,
        "velocity": 95,
        "duration": 0.768,
        "confidence": 0.528
      },
      {
        "time": 157.856,
        "midi": 28,
        "velocity": 93,
        "duration": 0.928,
        "confidence": 0.456
      },
      {
        "time": 159.328,
        "midi": 35,
        "velocity": 99,
        "duration": 0.992,
        "confidence": 0.662
      },
      {
        "time": 160.576,
        "midi": 35,
        "velocity": 97,
        "duration": 0.192,
        "confidence": 0.596
      },
      {
        "time": 161.088,
        "midi": 33,
        "velocity": 97,
        "duration": 1.152,
        "confidence": 0.579
      },
      {
        "time": 163.296,
        "midi": 30,
        "velocity": 96,
        "duration": 0.8,
        "confidence": 0.541
      },
      {
        "time": 164.64,
        "midi": 28,
        "velocity": 94,
        "duration": 0.736,
        "confidence": 0.467
      },
      {
        "time": 166.368,
        "midi": 35,
        "velocity": 99,
        "duration": 0.768,
        "confidence": 0.667
      },
      {
        "time": 168.224,
        "midi": 33,
        "velocity": 97,
        "duration": 1.088,
        "confidence": 0.589
      },
      {
        "time": 171.264,
        "midi": 30,
        "velocity": 94,
        "duration": 0.256,
        "confidence": 0.494
      },
      {
        "time": 171.744,
        "midi": 28,
        "velocity": 94,
        "duration": 0.48,
        "confidence": 0.486
      },
      {
        "time": 172.608,
        "midi": 28,
        "velocity": 94,
        "duration": 0.288,
        "confidence": 0.479
      },
      {
        "time": 173.44,
        "midi": 35,
        "velocity": 98,
        "duration": 0.768,
        "confidence": 0.62
      },
      {
        "time": 175.232,
        "midi": 33,
        "velocity": 97,
        "duration": 1.216,
        "confidence": 0.587
      },
      {
        "time": 177.44,
        "midi": 30,
        "velocity": 95,
        "duration": 0.704,
        "confidence": 0.514
      },
      {
        "time": 180.544,
        "midi": 35,
        "velocity": 100,
        "duration": 1.152,
        "confidence": 0.688
      },
      {
        "time": 182.272,
        "midi": 33,
        "velocity": 98,
        "duration": 1.632,
        "confidence": 0.606
      },
      {
        "time": 184.544,
        "midi": 30,
        "velocity": 94,
        "duration": 0.672,
        "confidence": 0.487
      },
      {
        "time": 185.952,
        "midi": 28,
        "velocity": 93,
        "duration": 1.12,
        "confidence": 0.453
      },
      {
        "time": 187.552,
        "midi": 35,
        "velocity": 100,
        "duration": 1.024,
        "confidence": 0.669
      },
      {
        "time": 189.376,
        "midi": 33,
        "velocity": 97,
        "duration": 1.152,
        "confidence": 0.597
      },
      {
        "time": 191.584,
        "midi": 30,
        "velocity": 95,
        "duration": 0.736,
        "confidence": 0.521
      },
      {
        "time": 192.864,
        "midi": 28,
        "velocity": 93,
        "duration": 1.184,
        "confidence": 0.452
      },
      {
        "time": 194.848,
        "midi": 35,
        "velocity": 99,
        "duration": 0.48,
        "confidence": 0.635
      },
      {
        "time": 196.352,
        "midi": 33,
        "velocity": 97,
        "duration": 1.248,
        "confidence": 0.589
      },
      {
        "time": 198.592,
        "midi": 30,
        "velocity": 94,
        "duration": 0.736,
        "confidence": 0.499
      },
      {
        "time": 199.968,
        "midi": 28,
        "velocity": 93,
        "duration": 1.152,
        "confidence": 0.457
      },
      {
        "time": 201.664,
        "midi": 35,
        "velocity": 99,
        "duration": 0.768,
        "confidence": 0.643
      },
      {
        "time": 203.008,
        "midi": 35,
        "velocity": 98,
        "duration": 0.16,
        "confidence": 0.618
      },
      {
        "time": 203.456,
        "midi": 33,
        "velocity": 98,
        "duration": 1.248,
        "confidence": 0.627
      },
      {
        "time": 205.664,
        "midi": 30,
        "velocity": 95,
        "duration": 0.768,
        "confidence": 0.514
      },
      {
        "time": 207.04,
        "midi": 28,
        "velocity": 93,
        "duration": 0.608,
        "confidence": 0.462
      },
      {
        "time": 208.288,
        "midi": 35,
        "velocity": 100,
        "duration": 10.88,
        "confidence": 0.699
      }
    ]
  },
  "duration_sec": 219.705873015873
}