{
  "id": "2ae3dc28",
  "service": "melody_bass",
  "source_path": "/Users/danielconnolly/Projects/Performia/backend/uploads/2ae3dc28.mp3",
  "performance": {
    "melody": [
      {
        "time": 12.608,
        "midi": 59,
        "velocity": 105,
        "duration": 0.16,
        "confidence": 0.864
      },
      {
        "time": 12.864,
        "midi": 56,
        "velocity": 106,
        "duration": 0.32,
        "confidence": 0.869
      },
      {
        "time": 13.76,
        "midi": 52,
        "velocity": 105,
        "duration": 0.448,
        "confidence": 0.837
      },
      {
        "time": 15.872,
        "midi": 54,
        "velocity": 103,
        "duration": 0.32,
        "confidence": 0.792
      },
      {
        "time": 19.968,
        "midi": 58,
        "velocity": 103,
        "duration": 0.64,
        "confidence": 0.768
      },
      {
        "time": 20.8,
        "midi": 54,
        "velocity": 105,
        "duration": 0.288,
        "confidence": 0.865
      },
      {
        "time": 21.216,
        "midi": 53,
        "velocity": 104,
        "duration": 0.832,
        "confidence": 0.8
      },
      {
        "time": 26.688,
        "midi": 57,
        "velocity": 106,
        "duration": 0.736,
        "confidence": 0.874
      },
      {
        "time": 29.984,
        "midi": 52,
        "velocity": 106,
        "duration": 0.128,
        "confidence": 0.869
      },
      {
        "time": 30.848,
        "midi": 52,
        "velocity": 106,
        "duration": 0.512,
        "confidence": 0.895
      },
      {
        "time": 34.304,
        "midi": 58,
        "velocity": 102,
        "duration": 0.64,
        "confidence": 0.74
      },
      {
        "time": 35.552,
        "midi": 53,
        "velocity": 106,
        "duration": 0.864,
        "confidence": 0.884
      },
      {
        "time": 38.624,
        "midi": 57,
        "velocity": 102,
        "duration": 0.192,
        "confidence": 0.734
      },
      {
        "time": 48.64,
        "midi": 57,
        "velocity": 100,
        "duration": 0.128,
        "confidence": 0.686
      },
      {
        "time": 60.096,
        "midi": 57,
        "velocity": 105,
        "duration": 0.8,
        "confidence": 0.844
      },
      {
        "time": 61.344,
        "midi": 52,
        "velocity": 104,
        "duration": 0.352,
        "confidence": 0.831
      },
      {
        "time": 62.432,
        "midi": 49,
        "velocity": 101,
        "duration": 0.544,
        "confidence": 0.713
      },
      {
        "time": 64.032,
        "midi": 53,
        "velocity": 102,
        "duration": 1.056,
        "confidence": 0.766
      },
      {
        "time": 65.12,
        "midi": 49,
        "velocity": 102,
        "duration": 0.192,
        "confidence": 0.733
      },
      {
        "time": 67.744,
        "midi": 59,
        "velocity": 101,
        "duration": 0.192,
        "confidence": 0.722
      },
      {
        "time": 68.64,
        "midi": 54,
        "velocity": 99,
        "duration": 0.128,
        "confidence": 0.651
      },
      {
        "time": 68.864,
        "midi": 53,
        "velocity": 105,
        "duration": 1.28,
        "confidence": 0.834
      },
      {
        "time": 74.56,
        "midi": 57,
        "velocity": 104,
        "duration": 0.288,
        "confidence": 0.809
      },
      {
        "time": 75.872,
        "midi": 52,
        "velocity": 102,
        "duration": 0.864,
        "confidence": 0.764
      },
      {
        "time": 77.248,
        "midi": 52,
        "velocity": 100,
        "duration": 0.192,
        "confidence": 0.699
      },
      {
        "time": 78.112,
        "midi": 55,
        "velocity": 103,
        "duration": 0.512,
        "confidence": 0.772
      },
      {
        "time": 78.848,
        "midi": 54,
        "velocity": 102,
        "duration": 0.288,
        "confidence": 0.756
      },
      {
        "time": 79.424,
        "midi": 51,
        "velocity": 105,
        "duration": 0.224,
        "confidence": 0.839
      },
      {
        "time": 81.856,
        "midi": 58,
        "velocity": 104,
        "duration": 0.48,
        "confidence": 0.804
      },
      {
        "time": 82.688,
        "midi": 54,
        "velocity": 103,
        "duration": 1.088,
        "confidence": 0.772
      },
      {
        "time": 103.296,
        "midi": 57,
        "velocity": 102,
        "duration": 0.256,
        "confidence": 0.748
      },
      {
        "time": 108.288,
        "midi": 56,
        "velocity": 104,
        "duration": 3.168,
        "confidence": 0.833
      },
      {
        "time": 111.712,
        "midi": 51,
        "velocity": 101,
        "duration": 0.352,
        "confidence": 0.729
      },
      {
        "time": 116.896,
        "midi": 59,
        "velocity": 103,
        "duration": 0.352,
        "confidence": 0.783
      },
      {
        "time": 119.744,
        "midi": 57,
        "velocity": 101,
        "duration": 0.128,
        "confidence": 0.722
      },
      {
        "time": 120.544,
        "midi": 61,
        "velocity": 99,
        "duration": 0.192,
        "confidence": 0.64
      },
      {
        "time": 122.176,
        "midi": 52,
        "velocity": 98,
        "duration": 0.16,
        "confidence": 0.617
      },
      {
        "time": 123.456,
        "midi": 55,
        "velocity": 102,
        "duration": 0.416,
        "confidence": 0.744
      },
      {
        "time": 124.192,
        "midi": 59,
        "velocity": 106,
        "duration": 4.448,
        "confidence": 0.877
      },
      {
        "time": 134.784,
        "midi": 61,
        "velocity": 99,
        "duration": 0.128,
        "confidence": 0.652
      },
      {
        "time": 135.168,
        "midi": 59,
        "velocity": 105,
        "duration": 0.224,
        "confidence": 0.855
      },
      {
        "time": 137.76,
        "midi": 56,
        "velocity": 98,
        "duration": 0.16,
        "confidence": 0.631
      },
      {
        "time": 138.368,
        "midi": 59,
        "velocity": 104,
        "duration": 4.704,
        "confidence": 0.805
      },
      {
        "time": 160.768,
        "midi": 59,
        "velocity": 99,
        "duration": 0.192,
        "confidence": 0.663
      },
      {
        "time": 162.784,
        "midi": 61,
        "velocity": 104,
        "duration": 0.16,
        "confidence": 0.823
      },
      {
        "time": 166.976,
        "midi": 59,
        "velocity": 105,
        "duration": 2.912,
        "confidence": 0.849
      },
      {
        "time": 175.2,
        "midi": 57,
        "velocity": 104,
        "duration": 0.8,
        "confidence": 0.81
      },
      {
        "time": 177.504,
        "midi": 59,
        "velocity": 101,
        "duration": 0.32,
        "confidence": 0.714
      },
      {
        "time": 181.12,
        "midi": 59,
        "velocity": 103,
        "duration": 0.384,
        "confidence": 0.789
      },
      {
        "time": 181.728,
        "midi": 59,
        "velocity": 103,
        "duration": 3.584,
        "confidence": 0.796
      },
      {
        "time": 207.104,
        "midi": 59,
        "velocity": 101,
        "duration": 0.16,
        "confidence": 0.715
      },
      {
        "time": 207.712,
        "midi": 56,
        "velocity": 97,
        "duration": 0.128,
        "confidence": 0.599
      },
      {
        "time": 210.208,
        "midi": 57,
        "velocity": 104,
        "duration": 0.192,
        "confidence": 0.812
      },
      {
        "time": 211.68,
        "midi": 61,
        "velocity": 104,
        "duration": 0.128,
        "confidence": 0.825
      }
    ],
    "bass": [
      {
        "time": 46.656,
        "midi": 42,
        "velocity": 103,
        "duration": 1.472,
        "confidence": 0.777
      },
      {
        "time": 58.112,
        "midi": 35,
        "velocity": 99,
        "duration": 0.416,
        "confidence": 0.645
      },
      {
        "time": 60.48,
        "midi": 33,
        "velocity": 97,
        "duration": 1.248,
        "confidence": 0.588
      },
      {
        "time": 62.336,
        "midi": 30,
        "velocity": 94,
        "duration": 1.28,
        "confidence": 0.495
      },
      {
        "time": 64.032,
        "midi": 35,
        "velocity": 98,
        "duration": 1.184,
        "confidence": 0.609
      },
      {
        "time": 66.048,
        "midi": 28,
        "velocity": 93,
        "duration": 0.576,
        "confidence": 0.436
      },
      {
        "time": 66.88,
        "midi": 28,
        "velocity": 93,
        "duration": 0.192,
        "confidence": 0.456
      },
      {
        "time": 67.104,
        "midi": 40,
        "velocity": 100,
        "duration": 0.288,
        "confidence": 0.689
      },
      {
        "time": 67.552,
        "midi": 33,
        "velocity": 96,
        "duration": 1.184,
        "confidence": 0.565
      },
      {
        "time": 69.312,
        "midi": 35,
        "velocity": 100,
        "duration": 0.544,
        "confidence": 0.671
      },
      {
        "time": 70.592,
        "midi": 35,
        "velocity": 100,
        "duration": 1.664,
        "confidence": 0.687
      },
      {
        "time": 72.832,
        "midi": 28,
        "velocity": 94,
        "duration": 0.864,
        "confidence": 0.472
      },
      {
        "time": 73.728,
        "midi": 40,
        "velocity": 99,
        "duration": 0.736,
        "confidence": 0.654
      },
      {
        "time": 74.656,
        "midi": 33,
        "velocity": 98,
        "duration": 1.184,
        "confidence": 0.602
      },
      {
        "time": 76.416,
        "midi": 30,
        "velocity": 96,
        "duration": 1.408,
        "confidence": 0.536
      },
      {
        "time": 78.56,
        "midi": 35,
        "velocity": 100,
        "duration": 1.248,
        "confidence": 0.679
      },
      {
        "time": 80.16,
        "midi": 28,
        "velocity": 93,
        "duration": 0.928,
        "confidence": 0.451
      },
      {
        "time": 81.12,
        "midi": 40,
        "velocity": 99,
        "duration": 0.416,
        "confidence": 0.652
      },
      {
        "time": 81.76,
        "midi": 33,
        "velocity": 98,
        "duration": 1.184,
        "confidence": 0.608
      },
      {
        "time": 83.488,
        "midi": 35,
        "velocity": 100,
        "duration": 0.512,
        "confidence": 0.686
      },
      {
        "time": 84.736,
        "midi": 35,
        "velocity": 100,
        "duration": 1.248,
        "confidence": 0.676
      },
      {
        "time": 86.304,
        "midi": 38,
        "velocity": 102,
        "duration": 0.576,
        "confidence": 0.734
      },
      {
        "time": 87.008,
        "midi": 28,
        "velocity": 94,
        "duration": 1.088,
        "confidence": 0.468
      },
      {
        "time": 88.128,
        "midi": 40,
        "velocity": 96,
        "duration": 0.416,
        "confidence": 0.543
      },
      {
        "time": 88.672,
        "midi": 38,
        "velocity": 102,
        "duration": 1.28,
        "confidence": 0.748
      },
      {
        "time": 90.688,
        "midi": 33,
        "velocity": 98,
        "duration": 1.024,
        "confidence": 0.632
      },
      {
        "time": 92.704,
        "midi": 30,
        "velocity": 96,
        "duration": 0.8,
        "confidence": 0.538
      },
      {
        "time": 94.048,
        "midi": 28,
        "velocity": 94,
        "duration": 0.768,
        "confidence": 0.468
      },
      {
        "time": 94.848,
        "midi": 40,
        "velocity": 94,
        "duration": 0.608,
        "confidence": 0.473
      },
      {
        "time": 95.808,
        "midi": 38,
        "velocity": 101,
        "duration": 1.44,
        "confidence": 0.701
      },
      {
        "time": 97.664,
        "midi": 33,
        "velocity": 96,
        "duration": 1.088,
        "confidence": 0.556
      },
      {
        "time": 99.776,
        "midi": 30,
        "velocity": 96,
        "duration": 0.8,
        "confidence": 0.541
      },
      {
        "time": 101.12,
        "midi": 28,
        "velocity": 93,
        "duration": 1.376,
        "confidence": 0.458
      },
      {
        "time": 102.848,
        "midi": 38,
        "velocity": 102,
        "duration": 1.504,
        "confidence": 0.734
      },
      {
        "time": 104.768,
        "midi": 33,
        "velocity": 97,
        "duration": 1.056,
        "confidence": 0.593
      },
      {
        "time": 106.848,
        "midi": 30,
        "velocity": 96,
        "duration": 0.736,
        "confidence": 0.535
      },
      {
        "time": 108.16,
        "midi": 28,
        "velocity": 93,
        "duration": 1.12,
        "confidence": 0.438
      },
      {
        "time": 109.44,
        "midi": 38,
        "velocity": 100,
        "duration": 1.664,
        "confidence": 0.698
      },
      {
        "time": 111.392,
        "midi": 33,
        "velocity": 97,
        "duration": 1.472,
        "confidence": 0.595
      },
      {
        "time": 113.856,
        "midi": 30,
        "velocity": 95,
        "duration": 0.704,
        "confidence": 0.514
      },
      {
        "time": 115.136,
        "midi": 33,
        "velocity": 98,
        "duration": 1.472,
        "confidence": 0.619
      },
      {
        "time": 116.96,
        "midi": 32,
        "velocity": 97,
        "duration": 1.216,
        "confidence": 0.575
      },
      {
        "time": 118.688,
        "midi": 38,
        "velocity": 102,
        "duration": 1.664,
        "confidence": 0.737
      },
      {
        "time": 121.376,
        "midi": 30,
        "velocity": 94,
        "duration": 0.288,
        "confidence": 0.499
      },
      {
        "time": 122.24,
        "midi": 32,
        "velocity": 98,
        "duration": 3.04,
        "confidence": 0.605
      },
      {
        "time": 125.792,
        "midi": 38,
        "velocity": 101,
        "duration": 1.632,
        "confidence": 0.731
      },
      {
        "time": 128.064,
        "midi": 30,
        "velocity": 94,
        "duration": 0.672,
        "confidence": 0.495
      },
      {
        "time": 129.088,
        "midi": 32,
        "velocity": 98,
        "duration": 1.664,
        "confidence": 0.601
      },
      {
        "time": 131.136,
        "midi": 32,
        "velocity": 97,
        "duration": 1.568,
        "confidence": 0.587
      },
      {
        "time": 132.928,
        "midi": 38,
        "velocity": 101,
        "duration": 1.536,
        "confidence": 0.704
      },
      {
        "time": 134.592,
        "midi": 30,
        "velocity": 95,
        "duration": 1.216,
        "confidence": 0.527
      },
      {
        "time": 136.384,
        "midi": 33,
        "velocity": 98,
        "duration": 1.44,
        "confidence": 0.632
      },
      {
        "time": 138.176,
        "midi": 32,
        "velocity": 98,
        "duration": 1.28,
        "confidence": 0.611
      },
      {
        "time": 139.904,
        "midi": 31,
        "velocity": 96,
        "duration": 1.28,
        "confidence": 0.537
      },
      {
        "time": 141.504,
        "midi": 35,
        "velocity": 99,
        "duration": 0.384,
        "confidence": 0.637
      },
      {
        "time": 142.144,
        "midi": 35,
        "velocity": 100,
        "duration": 1.184,
        "confidence": 0.682
      },
      {
        "time": 143.52,
        "midi": 28,
        "velocity": 93,
        "duration": 1.152,
        "confidence": 0.459
      },
      {
        "time": 145.216,
        "midi": 35,
        "velocity": 99,
        "duration": 0.768,
        "confidence": 0.657
      },
      {
        "time": 146.496,
        "midi": 35,
        "velocity": 99,
        "duration": 0.16,
        "confidence": 0.634
      },
      {
        "time": 147.104,
        "midi": 33,
        "velocity": 98,
        "duration": 1.088,
        "confidence": 0.632
      },
      {
        "time": 149.184,
        "midi": 30,
        "velocity": 96,
        "duration": 0.768,
        "confidence": 0.549
      },
      {
        "time": 150.56,
        "midi": 28,
        "velocity": 94,
        "duration": 1.152,
        "confidence": 0.477
      },
      {
        "time": 152.224,
        "midi": 35,
        "velocity": 99,
        "duration": 0.8,
        "confidence": 0.664
      },
      {
        "time": 153.536,
        "midi": 35,
        "velocity": 99,
        "duration": 0.16,
        "confidence": 0.658
      },
      {
        "time": 154.016,
        "midi": 33,
        "velocity": 98,
        "duration": 1.184,
        "confidence": 0.629
      },
      {
        "time": 156.224,
        "midi": 30,
        "velocity": 95,
        "duration": 0.768,
        "confidence": 0.528
      },
      {
        "time": 157.664,
        "midi": 28,
        "velocity": 93,
        "duration": 1.12,
        "confidence": 0.454
      },
      {
        "time": 159.328,
        "midi": 35,
        "velocity": 99,
        "duration": 0.992,
        "confidence": 0.649
      },
      {
        "time": 160.576,
        "midi": 35,
        "velocity": 97,
        "duration": 0.192,
        "confidence": 0.586
      },
      {
        "time": 161.088,
        "midi": 33,
        "velocity": 97,
        "duration": 1.152,
        "confidence": 0.595
      },
      {
        "time": 163.296,
        "midi": 30,
        "velocity": 96,
        "duration": 0.8,
        "confidence": 0.541
      },
      {
        "time": 164.64,
        "midi": 28,
        "velocity": 94,
        "duration": 0.736,
        "confidence": 0.467
      },
      {
        "time": 165.632,
        "midi": 28,
        "velocity": 93,
        "duration": 0.16,
        "confidence": 0.438
      },
      {
        "time": 166.368,
        "midi": 35,
        "velocity": 100,
        "duration": 0.768,
        "confidence": 0.672
      },
      {
        "time": 168.16,
        "midi": 33,
        "velocity": 97,
        "duration": 1.152,
        "confidence": 0.587
      },
      {
        "time": 171.264,
        "midi": 30,
        "velocity": 95,
        "duration": 0.256,
        "confidence": 0.517
      },
      {
        "time": 171.744,
        "midi": 28,
        "velocity": 94,
        "duration": 0.48,
        "confidence": 0.482
      },
      {
        "time": 172.576,
        "midi": 28,
        "velocity": 93,
        "duration": 0.32,
        "confidence": 0.462
      },
      {
        "time": 173.44,
        "midi": 35,
        "velocity": 99,
        "duration": 0.768,
        "confidence": 0.643
      },
      {
        "time": 175.232,
        "midi": 33,
        "velocity": 98,
        "duration": 1.216,
        "confidence": 0.603
      },
      {
        "time": 177.44,
        "midi": 30,
        "velocity": 95,
        "duration": 0.704,
        "confidence": 0.52
      },
      {
        "time": 180.544,
        "midi": 35,
        "velocity": 101,
        "duration": 1.152,
        "confidence": 0.71
      },
      {
        "time": 182.24,
        "midi": 33,
        "velocity": 98,
        "duration": 1.664,
        "confidence": 0.609
      },
      {
        "time": 184.544,
        "midi": 30,
        "velocity": 94,
        "duration": 0.672,
        "confidence": 0.487
      },
      {
        "time": 185.952,
        "midi": 28,
        "velocity": 93,
        "duration": 1.12,
        "confidence": 0.452
      },
      {
        "time": 187.552,
        "midi": 35,
        "velocity": 100,
        "duration": 1.024,
        "confidence": 0.667
      },
      {
        "time": 189.376,
        "midi": 33,
        "velocity": 97,
        "duration": 1.152,
        "confidence": 0.595
      },
      {
        "time": 191.552,
        "midi": 30,
        "velocity": 95,
        "duration": 0.768,
        "confidence": 0.527
      },
      {
        "time": 192.864,
        "midi": 28,
        "velocity": 93,
        "duration": 1.184,
        "confidence": 0.456
      },
      {
        "time": 194.848,
        "midi": 35,
        "velocity": 99,
        "duration": 0.48,
        "confidence": 0.64
      },
      {
        "time": 196.352,
        "midi": 33,
        "velocity": 98,
        "duration": 1.248,
        "confidence": 0.602
      },
      {
        "time": 198.592,
        "midi": 30,
        "velocity": 95,
        "duration": 0.736,
        "confidence": 0.51
      },
      {
        "time": 199.968,
        "midi": 28,
        "velocity": 93,
        "duration": 1.152,
        "confidence": 0.456
      },
      {
        "time": 201.696,
        "midi": 35,
        "velocity": 99,
        "duration": 0.736,
        "confidence": 0.665
      },
      {
        "time": 203.008,
        "midi": 35,
        "velocity": 98,
        "duration": 0.16,
        "confidence": 0.62
      },
      {
        "time": 203.456,
        "midi": 33,
        "velocity": 98,
        "duration": 1.248,
        "confidence": 0.625
      },
      {
        "time": 205.664,
        "midi": 30,
        "velocity": 95,
        "duration": 0.736,
        "confidence": 0.513
      },
      {
        "time": 207.04,
        "midi": 28,
        "velocity": 93,
        "duration": 0.608,
        "confidence": 0.458
      },
      {
        "time": 208.288,
        "midi": 35,
        "velocity": 100,
        "duration": 10.88,
        "confidence": 0.699
      }
    ]
  },
  "duration_sec": 219.705873015873
}